PathFileType	4	(X/Y/Z)	S01_0009_Gait_markers.trc
DataRate	CameraRate	NumFrames	NumMarkers	Units	OrigDataRate	OrigDataStartFrame	OrigNumFrames
250.000000	250.000000	4	54	mm	250.000000	171	343
Frame#	Time	HEAD_ANT			R_HEAD			L_HEAD			C7			R_BACK			L_BACK			STERNUM			R_ACROMION			R_HUM_PROX			R_HUM_ANT			R_HUM_POST			R_ELBOW_LAT			R_ELBOW_MED			R_FOREARM			R_WIRST_LAT			R_WRITS_MED			R_HAND			L_ACROMION			L_HUM_PROX			L_HUM_ANT			L_HUM_POST			L_ELBOW_LAT			L_ELBOW_MED			L_FOREARM			L_WRIST_LAT			L_WIRST_MED			L_HAND			R_ILIAC			SACRUM			L_ILIAC			R_GTROCH			R_THIGH__1			R_THIGH_2			R_THIGH_3			R_THIGH_4			R_SHANK_1			R_SHANK_2			R_SHANK_3			R_SHANK_4			R_HEEL			R_FOOT_LAT			R_FOOT_MED			L_GTROCH			L_THIGH_1			L_THIGH_2			L_THIGH_3			L_THIGH_4			L_SHANK_1			L_SHANK_2			L_SHANK_3			L_SHANK_4			L_HEEL			L_FOOT_LAT			L_FOOT_MED			
		X1	Y1	Z1	X2	Y2	Z2	X3	Y3	Z3	X4	Y4	Z4	X5	Y5	Z5	X6	Y6	Z6	X7	Y7	Z7	X8	Y8	Z8	X9	Y9	Z9	X10	Y10	Z10	X11	Y11	Z11	X12	Y12	Z12	X13	Y13	Z13	X14	Y14	Z14	X15	Y15	Z15	X16	Y16	Z16	X17	Y17	Z17	X18	Y18	Z18	X19	Y19	Z19	X20	Y20	Z20	X21	Y21	Z21	X22	Y22	Z22	X23	Y23	Z23	X24	Y24	Z24	X25	Y25	Z25	X26	Y26	Z26	X27	Y27	Z27	X28	Y28	Z28	X29	Y29	Z29	X30	Y30	Z30	X31	Y31	Z31	X32	Y32	Z32	X33	Y33	Z33	X34	Y34	Z34	X35	Y35	Z35	X36	Y36	Z36	X37	Y37	Z37	X38	Y38	Z38	X39	Y39	Z39	X40	Y40	Z40	X41	Y41	Z41	X42	Y42	Z42	X43	Y43	Z43	X44	Y44	Z44	X45	Y45	Z45	X46	Y46	Z46	X47	Y47	Z47	X48	Y48	Z48	X49	Y49	Z49	X50	Y50	Z50	X51	Y51	Z51	X52	Y52	Z52	X53	Y53	Z53	X54	Y54	Z54	

172	0.6840000000000001	1094.251953125	1716.045532226562	-292.762054443359	1040.133544921875	1659.8916015625	-215.4710083007809	1036.651611328125	1666.302124023438	-363.0890808105465	906.4974975585938	1490.887817382812	-286.2394104003903	837.8292846679688	1296.921020507812	-209.3104858398435	829.32470703125	1295.324340820312	-347.5448913574216	1084.056030273438	1327.599609375	-298.9960937499997	999.4998779296875	1443.618286132812	-122.8961181640622	998.9017333984375	1286.16015625	-29.87473678588839	1073.270141601562	1211.87109375	-45.161136627197	959.6889038085938	1194.479370117188	-2.985369682311747	1026.488647460938	1096.241943359375	-11.75909519195532	980.0348510742188	1084.797119140625	-82.7755966186521	1176.621459960938	958.1688232421875	-60.08226394653299	1221.9990234375	912.9711303710938	-116.2331695556639	1179.956176757812	863.653076171875	-65.7516555786131	1272.761352539062	832.653076171875	-75.36738586425763	970.1128540039062	1444.789672851562	-460.246185302734	920.9354248046875	1279.574951171875	-550.3112792968748	974.8013305664062	1194.349365234375	-561.762512207031	850.3591918945312	1207.252685546875	-562.5263061523435	897.0010375976562	1099.041259765625	-581.4486083984373	856.0721435546875	1097.459594726563	-515.7819824218748	983.2659301757812	912.4317016601564	-587.329162597656	1018.807067871094	848.8096923828126	-543.4133300781248	958.872314453125	831.4555053710939	-595.3111572265623	1034.069702148438	773.4626464843751	-598.6637573242185	973.1610107421875	1041.618286132812	-120.9430007934568	853.2078857421875	1013.284729003906	-299.2699890136716	972.1396484375	1038.165161132812	-466.4251403808591	909.405029296875	914.0811157226562	-111.0771331787107	857.1652221679688	648.99658203125	-131.1383056640624	915.5866088867188	646.3189086914062	-125.2538146972655	888.8654174804688	546.8984985351562	-157.6925354003905	829.7636108398438	573.417724609375	-153.4175567626952	708.0699462890625	375.8090820312501	-153.9184570312499	746.3485107421875	331.3575744628907	-167.2516479492187	702.4130249023438	259.8191833496094	-187.8694915771484	649.8247680664062	294.8933410644532	-180.3231658935546	515.5462036132812	134.9797515869141	-264.6917114257812	640.5919189453125	20.97015953063969	-191.7806396484375	703.8467407226562	30.94804000854499	-285.9506225585938	956.8952026367188	922.2102661132814	-473.7411804199216	1137.970947265625	672.6527099609376	-456.5130310058592	1083.36376953125	668.4641113281251	-478.1928710937498	1104.206420898438	570.8154296875001	-437.4233093261718	1161.598754882812	598.5729980468751	-426.0251159667968	1214.999755859375	332.7091674804689	-422.8543395996093	1166.751342773438	295.2973022460939	-425.3913574218749	1189.57080078125	212.5031890869141	-407.7162780761718	1248.17529296875	237.6506958007813	-401.0279541015624	1210.668823242188	28.49821853637703	-335.5356750488281	1384.832275390625	51.28710174560556	-405.3411254882812	1416.116455078125	75.48638153076179	-311.3829345703125	
173	0.6880000000000001	1100.1123046875	1715.7822265625	-293.524017333984	1045.950073242188	1659.5927734375	-216.3503265380856	1042.525634765625	1665.938354492188	-364.0204162597652	912.4658813476562	1490.320678710938	-286.9883117675778	844.040283203125	1296.381225585938	-210.1649475097653	835.9138793945312	1294.581787109375	-348.3372497558591	1090.404907226562	1327.44140625	-299.4588317871091	1005.46630859375	1443.332153320312	-123.5898437499997	1004.629821777344	1285.876220703125	-30.75039863586397	1078.859252929688	1211.360961914062	-45.63927841186496	965.1363525390625	1194.135131835938	-3.953076839446756	1031.706909179688	1095.935668945312	-12.37616729736304	985.3724975585938	1084.63330078125	-83.62158966064429	1181.653930664062	957.352783203125	-60.02526855468729	1226.899169921875	911.7474365234375	-116.0391769409178	1184.54296875	862.7072143554688	-65.44712829589825	1277.182006835938	831.2816772460938	-74.89868164062482	976.4933471679688	1444.196899414062	-460.9040832519528	927.4586181640625	1278.960205078125	-550.8725585937498	981.2197875976562	1193.61669921875	-562.0021972656248	856.9462280273438	1206.628173828125	-563.1822509765623	903.6148681640625	1098.355590820313	-581.728576660156	862.5311889648438	1096.893920898438	-516.245910644531	989.4379272460938	911.7124023437501	-587.7908935546873	1025.073120117188	848.0333862304689	-543.9782104492185	964.8334350585938	830.6182861328126	-595.4971923828123	1040.136840820312	772.4801635742189	-598.8763427734373	979.7899780273438	1041.0830078125	-121.1086959838865	859.895751953125	1012.902160644531	-299.4913330078123	979.0704956054688	1037.853271484375	-466.9125061035154	916.0143432617188	913.408203125	-111.3979492187498	864.33154296875	648.287109375	-131.3690185546874	922.5239868164062	645.50244140625	-125.4238891601561	896.1411743164062	546.1925659179688	-157.7239685058593	836.9520874023438	572.5262451171875	-153.5010528564452	713.824462890625	376.2475280761719	-153.3871002197265	751.5949096679688	331.4299316406251	-166.7970428466796	706.6702270507812	260.4848327636719	-186.9585723876953	654.524169921875	296.2167663574219	-179.4067077636718	518.2711181640625	138.4003601074219	-263.4638671874999	640.97119140625	21.32707214355473	-191.7396087646484	703.947509765625	30.94990921020514	-285.871826171875	964.337158203125	921.9108276367189	-474.2204284667966	1145.583740234375	672.7502441406251	-455.6192626953123	1090.88623046875	668.8430786132814	-477.542510986328	1111.196411132812	571.2050781250001	-437.1539001464843	1168.640869140625	598.6256103515626	-425.5484924316405	1219.873779296875	332.1644592285157	-422.0396118164062	1171.336547851562	295.0321655273439	-424.4425964355468	1193.40673828125	212.1459503173829	-406.4660339355468	1252.23681640625	236.7443084716798	-400.3453979492187	1212.565551757812	29.99565315246589	-335.2933349609375	1387.216674804688	46.93185424804697	-404.7275695800781	1420.0732421875	69.5040359497071	-310.4609680175781	
174	0.6920000000000001	1105.929931640625	1715.524658203125	-294.4659729003902	1051.7841796875	1659.328369140625	-217.0991516113278	1048.5068359375	1665.58935546875	-364.7084045410152	918.339111328125	1489.89892578125	-287.847747802734	850.3712158203125	1295.982666015625	-211.1544952392575	842.5178833007812	1294.065795898438	-349.1995849609372	1096.82763671875	1327.307739257812	-300.0599365234372	1011.435791015625	1443.125854492188	-124.4141159057614	1010.234741210938	1285.629516601562	-31.31808280944796	1084.400512695312	1210.98974609375	-45.97884368896457	970.4517211914062	1193.925659179688	-4.708410739898417	1037.009033203125	1095.535766601562	-13.17523479461646	991.0061645507812	1084.389770507812	-84.28663635253882	1186.586547851562	956.2022094726562	-60.10807418823221	1231.8154296875	910.417724609375	-115.8818283081053	1189.078857421875	861.6876831054688	-65.38015747070294	1281.552734375	829.852294921875	-74.42042541503888	982.8512573242188	1443.773193359375	-461.7955322265622	933.9801635742188	1278.2548828125	-551.4857788085935	987.677001953125	1192.859130859375	-562.316711425781	863.4989624023438	1205.95751953125	-563.8565673828123	910.2661743164062	1097.648315429688	-581.927307128906	868.9945678710938	1096.324829101563	-516.6004638671873	995.6970825195312	910.9362792968751	-587.9037475585935	1031.208129882812	847.1752929687501	-544.0239257812498	971.0673217773438	829.8574218750001	-595.5907592773435	1046.211791992188	771.5986938476564	-599.064270019531	986.5886840820312	1040.624755859375	-121.4411087036131	866.5162963867188	1012.560668945313	-299.5735168457029	986.2401123046875	1037.57275390625	-467.3032531738279	922.5953979492188	912.7363891601562	-111.7293701171873	871.6378784179688	647.4929809570312	-131.5616607666014	929.773193359375	644.9678344726562	-125.6067123413085	903.55078125	545.343505859375	-157.6969909667968	844.2760009765625	571.5897827148438	-153.5669097900389	719.7994384765625	377.1196289062501	-153.2259368896484	756.9304809570312	331.6017456054688	-166.1876068115234	711.016845703125	261.1611938476563	-186.3146057128906	659.5487060546875	298.0175781250001	-178.4032440185546	521.162841796875	142.1217498779297	-262.1770629882812	641.4240112304688	21.74341773986821	-191.6815185546875	704.1021118164062	30.98244094848639	-285.7100524902344	971.6925659179688	921.7658081054689	-474.7424621582029	1152.886352539062	673.1713256835939	-455.1346740722655	1098.541748046875	669.9755249023439	-476.5710449218748	1118.07666015625	571.7329101562501	-437.3676452636718	1175.549682617188	598.6975708007814	-425.2800292968749	1224.678466796875	332.234100341797	-421.4403686523437	1176.130004882812	295.2859497070314	-423.2090454101562	1198.363037109375	212.2662963867188	-405.7514953613281	1257.401733398438	237.0088348388673	-400.3894348144531	1214.595581054688	31.31056404113777	-335.3089904785156	1390.265380859375	43.75288009643564	-403.7320861816406	1423.758422851562	65.24822998046882	-309.7837829589844	
175	0.6960000000000001	1111.927490234375	1715.499145507812	-295.2491455078121	1057.58935546875	1659.243286132812	-217.9476623535153	1054.508178710938	1665.256225585938	-365.6677551269527	924.2108764648438	1489.600830078125	-288.7846679687497	856.6934814453125	1295.794555664062	-212.1936035156247	848.9168701171875	1293.75732421875	-349.8232421874997	1103.31103515625	1327.211181640625	-300.6670227050778	1017.34423828125	1442.920776367188	-125.0391769409176	1015.819763183594	1285.419311523438	-32.03672409057589	1089.906860351562	1210.682250976562	-46.37058258056614	975.679443359375	1193.751098632812	-5.747047424316142	1042.130615234375	1095.294677734375	-13.94486999511694	996.6903076171875	1084.21435546875	-85.04965972900366	1191.341918945312	954.9705810546875	-60.53835678100565	1236.73876953125	909.1388549804688	-115.6876678466795	1193.528198242188	860.6326904296875	-65.18933868408185	1285.843505859375	828.4500122070312	-73.83189392089825	989.164306640625	1443.35693359375	-462.5648803710934	940.4990844726562	1277.709716796875	-552.156311035156	994.2809448242188	1192.198974609375	-562.3918457031248	870.2276000976562	1205.076049804688	-565.0727539062498	916.7802734375	1096.969970703125	-582.2075195312498	875.615234375	1095.707885742188	-516.811340332031	1001.988037109375	910.2331542968751	-588.082092285156	1037.400268554688	846.5557250976564	-544.0272216796873	977.3341674804688	829.1744995117189	-595.9323120117185	1052.273071289062	770.7449951171876	-599.1671752929685	992.7763061523438	1040.314208984375	-121.1759490966795	873.1255493164062	1012.517150878906	-299.6824035644529	993.3909912109375	1037.097045898438	-467.7318725585935	929.1943359375	912.192138671875	-112.2773437499998	879.0282592773438	646.5772705078125	-131.8452148437499	937.195556640625	644.2439575195312	-125.9565963745116	911.2353515625	544.4507446289062	-157.8644714355468	851.8932495117188	570.69287109375	-153.7447204589843	726.115234375	377.9690246582032	-152.6124420166015	762.607177734375	331.8824157714844	-165.6017150878905	715.6856689453125	262.0142822265626	-185.6733245849609	664.5798950195312	299.3579101562501	-177.9390563964843	524.457763671875	145.9439697265626	-260.7480468749999	642.0617065429688	22.23280715942387	-191.4908905029297	704.2486572265625	30.98937416076667	-285.6622009277344	979.1229858398438	921.6149902343751	-475.2990417480466	1160.189086914062	674.0359497070314	-454.3485107421873	1105.755004882812	670.9686889648439	-476.3354492187498	1124.751342773438	572.4715576171876	-437.3121643066405	1182.321044921875	598.9816894531251	-424.8613891601561	1230.573120117188	332.545867919922	-421.5647583007812	1181.767211914062	296.2387084960939	-422.3276672363281	1203.82568359375	212.8038482666016	-405.3103332519531	1263.036743164062	237.3751678466798	-400.3235473632812	1216.324462890625	32.45602035522468	-335.3262023925781	1392.900268554688	40.87834548950205	-403.2442626953125	1426.80517578125	62.64123916625984	-309.5308532714844	
